# xmcd
#
# Track frame offsets: 
#        150
#        11162
#        29087
#        47762
#        60662
#        75512
#        95312
#        115037
#        130712
#        151037
#
# Disc length: 2267 seconds
#
# Revision: 6
# Processed by: cddbd v1.5.2PL0 Copyright (c) Steve Scherf et al.
# Submitted via: ExactAudioCopyFreeDBPlugin 1.0
#
DISCID=7108d90a
DTITLE=Various Artist - Jim Beam's Back Room^ Blues Sessions
DYEAR=1998
DGENRE=Blues
TTITLE0=Buddy Guy - I Go Crazy
TTITLE1=Taj Mahal - Mockingbird
TTITLE2=Koko Taylor - Spellbound
TTITLE3=B.B. King - Caldonia [live]
TTITLE4=Etta James - I Can Give You Everything
TTITLE5=Albert Collins - Hooked on You
TTITLE6=Paul Cebar - Didn't Leave Me No Ladder
TTITLE7=Z.Z. Hill - Bump and Grind
TTITLE8=Buckwheat Zydeco - What You Gonna Do^
TTITLE9=Milton Campbell - The Blues Is Alright
EXTD=
EXTT0=I Go Crazy - Buddy Guy
EXTT1=Mockingbird - Taj Mahal
EXTT2=Spellbound - Koko Taylor
EXTT3=Caldonia - B.B. King
EXTT4=I Can Give You Everything - Etta James
EXTT5=Hooked On You - Albert Collins
EXTT6=Didn't Leave Me No Ladder - Paul Cebar
EXTT7=Bump And Grind - Z.Z. Hill
EXTT8=What You Gonna Do? - Buckwheat Zydeco
EXTT9=The Blues Is Alright - Milton Campbell
PLAYORDER=
